<svg width="48" height="48" viewBox="0 0 48 48" fill="none" xmlns="http://www.w3.org/2000/svg">
<path d="M20.5 25H22.057C22.7552 25 23.2385 25.6974 22.9933 26.3511L22.2433 28.3511C22.097 28.7414 21.7238 29 21.307 29H19L20.5 25Z" fill="#1A1A1A"/>
<path d="M7 15C7 12.7909 8.79086 11 11 11H25V23H11C8.79086 23 7 21.2091 7 19V15Z" fill="#1A1A1A"/>
<path d="M27 11H28.5279C28.8384 11 29.1446 11.0723 29.4223 11.2111L33 13V21L29.4223 22.7889C29.1446 22.9277 28.8384 23 28.5279 23H27V11Z" fill="#1A1A1A"/>
<path d="M35 13H35.3431C36.404 13 37.4214 13.4214 38.1716 14.1716L39 15V19L38.1716 19.8284C37.4214 20.5786 36.404 21 35.3431 21H35V13Z" fill="#1A1A1A"/>
<path d="M39 15H47V19H39V15Z" fill="#1A1A1A"/>
<path d="M14 23H22L18 33H11L14 23Z" fill="#1A1A1A"/>
<path d="M9 34L11 33H18L22 34V36H9V34Z" fill="#1A1A1A"/>
<path d="M9 38H22V40C22 41.1046 21.1046 42 20 42H11C9.89543 42 9 41.1046 9 40V38Z" fill="#1A1A1A"/>
<path fill-rule="evenodd" clip-rule="evenodd" d="M37 13.3593C37.4319 13.5558 37.8295 13.8295 38.1716 14.1716L39 15H45V19H39L38.1716 19.8284C37.8295 20.1705 37.4319 20.4442 37 20.6407C36.4846 20.8753 35.9203 21 35.3431 21H35V13H35.3431C35.9203 13 36.4846 13.1247 37 13.3593ZM33.4721 11H35.3431C36.9344 11 38.4606 11.6321 39.5858 12.7574L39.8284 13H47V21H39.8284L39.5858 21.2426C38.4606 22.3679 36.9344 23 35.3431 23H33.4721L30.3167 24.5777C29.7613 24.8554 29.1488 25 28.5279 25H24.8868C25.1125 25.6334 25.1291 26.3517 24.866 27.0534L24.116 29.0534C23.6769 30.2243 22.5575 31 21.307 31H20.9541L20.7079 31.6154L24 32.4384V40C24 42.2091 22.2091 44 20 44H11C8.79086 44 7 42.2091 7 40V32.7639L9.33266 31.5976L11.3119 25H11C7.68629 25 5 22.3137 5 19V15C5 11.6863 7.68629 9 11 9H28.5279C29.1488 9 29.7613 9.14458 30.3167 9.42229L33.4721 11ZM11 23C8.79086 23 7 21.2091 7 19V15C7 12.7909 8.79086 11 11 11H25V23H22L21.2 25H22.057C22.5545 25 22.9429 25.3541 23.0364 25.7942C23.0741 25.9717 23.0638 26.1632 22.9933 26.3511L22.2433 28.3511C22.1602 28.5729 22.0038 28.7521 21.8078 28.8655C21.6589 28.9518 21.487 29 21.307 29H19.6L18 33L22 34V36H9V34L11 33L14 23H11ZM33 21V13L29.4223 11.2111C29.2873 11.1437 29.1456 11.0919 29 11.0565C28.8459 11.0191 28.6875 11 28.5279 11H27V23H28.5279C28.6875 23 28.8459 22.9809 29 22.9435C29.1456 22.9081 29.2873 22.8563 29.4223 22.7889L33 21ZM9 38V40C9 41.1046 9.89543 42 11 42H20C21.1046 42 22 41.1046 22 40V38H9Z" fill="white"/>
<path d="M20.5 25H22.057C22.7552 25 23.2385 25.6974 22.9933 26.3511L22.2433 28.3511C22.097 28.7414 21.7238 29 21.307 29H19L20.5 25Z" fill="#1A1A1A"/>
<path d="M7 15C7 12.7909 8.79086 11 11 11H25V23H11C8.79086 23 7 21.2091 7 19V15Z" fill="#EE2A74"/>
<path d="M27 11H28.5279C28.8384 11 29.1446 11.0723 29.4223 11.2111L33 13V21L29.4223 22.7889C29.1446 22.9277 28.8384 23 28.5279 23H27V11Z" fill="#EE2A74"/>
<path d="M35 13H35.3431C36.404 13 37.4214 13.4214 38.1716 14.1716L39 15V19L38.1716 19.8284C37.4214 20.5786 36.404 21 35.3431 21H35V13Z" fill="#1A1A1A"/>
<path d="M39 15H45V19H39V15Z" fill="#1A1A1A"/>
<path d="M14 23H22L18 33H11L14 23Z" fill="#F16F9B"/>
<path d="M9 34L11 33H18L22 34V36H9V34Z" fill="#F16F9B"/>
<path d="M9 38H22V40C22 41.1046 21.1046 42 20 42H11C9.89543 42 9 41.1046 9 40V38Z" fill="#1A1A1A"/>
</svg>
