<svg width="48" height="48" viewBox="0 0 48 48" fill="none" xmlns="http://www.w3.org/2000/svg">
<path d="M23.9231 38.926C32.25 38.926 37.4858 32.828 37.4858 22.8189C37.4858 12.7257 32.1869 6.88004 23.9231 6.88004C15.6593 6.88004 10.3393 12.7467 10.3393 22.8399C10.3393 32.8701 15.5962 38.926 23.9231 38.926ZM23.9231 32.071C21.1895 32.071 19.4232 29.1902 19.4232 22.8399C19.4232 16.4686 21.1895 13.735 23.9231 13.735C26.6567 13.735 28.4019 16.4686 28.4019 22.8399C28.4019 29.1902 26.6567 32.071 23.9231 32.071Z" fill="#EE2A74"/>
<path fill-rule="evenodd" clip-rule="evenodd" d="M35.4704 36.0171C32.6691 39.3261 28.651 41.0792 23.9231 41.0792C19.2003 41.0792 15.1773 39.3404 12.3687 36.0396C9.5943 32.7791 8.18607 28.2119 8.18607 22.8399C8.18607 17.4329 9.61216 12.8896 12.4046 9.66535C15.2282 6.4052 19.2498 4.72681 23.9231 4.72681C28.5942 4.72681 32.6116 6.39856 35.4312 9.65507C38.2192 12.8751 39.639 17.4138 39.639 22.8189C39.639 28.1792 38.2367 32.7496 35.4704 36.0171ZM22.5605 28.8474C23.0453 29.7845 23.5056 29.9178 23.9231 29.9178C24.3374 29.9178 24.7917 29.7881 25.2724 28.8527C25.8213 27.7846 26.2487 25.8784 26.2487 22.8399C26.2487 19.7866 25.8198 17.9237 25.2817 16.9002C24.8238 16.0293 24.384 15.8882 23.9231 15.8882C23.4591 15.8882 23.0131 16.0326 22.5511 16.9055C22.0098 17.9282 21.5764 19.7897 21.5764 22.8399C21.5764 25.8753 22.0083 27.7801 22.5605 28.8474ZM37.4858 22.8189C37.4858 32.828 32.25 38.926 23.9231 38.926C15.5962 38.926 10.3393 32.87 10.3393 22.8399C10.3393 12.7467 15.6592 6.88003 23.9231 6.88003C32.1869 6.88003 37.4858 12.7257 37.4858 22.8189ZM19.4232 22.8399C19.4232 29.1902 21.1895 32.071 23.9231 32.071C26.6566 32.071 28.4019 29.1902 28.4019 22.8399C28.4019 16.4686 26.6566 13.735 23.9231 13.735C21.1895 13.735 19.4232 16.4686 19.4232 22.8399Z" fill="white"/>
<path d="M42.226 32.6895C42.226 36.8517 38.8519 40.2258 34.6898 40.2258C30.5276 40.2258 27.1535 36.8517 27.1535 32.6895C27.1535 28.5274 30.5276 25.1533 34.6898 25.1533C38.8519 25.1533 42.226 28.5274 42.226 32.6895Z" fill="white"/>
<path fill-rule="evenodd" clip-rule="evenodd" d="M44.3792 32.6895C44.3792 38.0409 40.0411 42.379 34.6898 42.379C29.3384 42.379 25.0003 38.0409 25.0003 32.6895C25.0003 27.3382 29.3384 23 34.6898 23C40.0411 23 44.3792 27.3382 44.3792 32.6895ZM34.6898 40.2258C38.8519 40.2258 42.226 36.8517 42.226 32.6895C42.226 28.5273 38.8519 25.1532 34.6898 25.1532C30.5276 25.1532 27.1535 28.5273 27.1535 32.6895C27.1535 36.8517 30.5276 40.2258 34.6898 40.2258Z" fill="white"/>
<path d="M39.1896 35.9261C39.1896 36.7545 38.518 37.4261 37.6896 37.4261C36.8611 37.4261 36.1896 36.7545 36.1896 35.9261C36.1896 35.0977 36.8611 34.4261 37.6896 34.4261C38.518 34.4261 39.1896 35.0977 39.1896 35.9261Z" fill="#1A1A1A"/>
<path d="M33.1896 29.9261C33.1896 30.7545 32.518 31.4261 31.6896 31.4261C30.8611 31.4261 30.1896 30.7545 30.1896 29.9261C30.1896 29.0977 30.8611 28.4261 31.6896 28.4261C32.518 28.4261 33.1896 29.0977 33.1896 29.9261Z" fill="#1A1A1A"/>
<path d="M31.154 36.4616C30.7635 36.0711 30.7635 35.4379 31.154 35.0474L36.8109 29.3906C37.2014 29 37.8346 29 38.2251 29.3906C38.6156 29.7811 38.6156 30.4142 38.2251 30.8048L32.5683 36.4616C32.1777 36.8521 31.5446 36.8521 31.154 36.4616Z" fill="#1A1A1A"/>
</svg>
