<svg width="48" height="48" viewBox="0 0 48 48" fill="none" xmlns="http://www.w3.org/2000/svg">
<path fill-rule="evenodd" clip-rule="evenodd" d="M6.34141 38H6C2.68629 38 0 35.3137 0 32V14C0 10.6863 2.68629 8 6 8H24C27.3137 8 30 10.6863 30 14H37.0437C38.8952 14 40.643 14.8548 41.7798 16.3164L46.7361 22.6888C47.5553 23.742 48 25.0382 48 26.3724V32C48 34.2375 46.7743 36.1862 44.9673 37.2157L43.6754 37.9517C42.8655 40.3073 40.6304 42 38 42C35.3876 42 33.1651 40.3304 32.3414 38H17.6586C16.8349 40.3304 14.6124 42 12 42C9.38756 42 7.16508 40.3304 6.34141 38ZM32 36C32 34.4087 32.6321 32.8826 33.7574 31.7574C34.8826 30.6321 36.4087 30 38 30C39.5776 30 41.0911 30.6213 42.2135 31.7284C42.2232 31.738 42.2329 31.7477 42.2426 31.7574C42.3042 31.819 42.3645 31.8819 42.4234 31.9461C42.8276 32.3871 43.1604 32.8826 43.4143 33.4145C43.7223 34.0594 43.9144 34.758 43.9773 35.4779C43.9774 35.4779 43.9771 35.478 43.9773 35.4779C44.7091 35.0609 45.2968 34.4193 45.6462 33.6472C45.8735 33.1448 46 32.5872 46 32V26.3724C46 25.4829 45.7035 24.6188 45.1574 23.9167L40.2011 17.5442C39.4432 16.5699 38.278 16 37.0437 16H30V36H32ZM41.9882 35.6901C41.9872 35.6773 41.9862 35.6646 41.9851 35.6519C41.9018 34.6862 41.4754 33.8186 40.8284 33.1716C40.1046 32.4477 39.1046 32 38 32C36.8954 32 35.8954 32.4477 35.1716 33.1716C34.4477 33.8954 34 34.8954 34 36C34 38.2091 35.7909 40 38 40C40.2091 40 42 38.2091 42 36C42 35.8957 41.996 35.7924 41.9882 35.6901ZM16.2265 31.7413C15.1028 30.6261 13.5837 30 12 30C10.4087 30 8.88258 30.6321 7.75736 31.7574C6.63548 32.8792 6.00376 34.3996 6.00002 35.9858C6.00001 35.9905 6 35.9953 6 36C5.27853 36 4.60168 35.809 4.01724 35.4748C2.81214 34.7857 2 33.4877 2 32V14C2 11.7909 3.79086 10 6 10H24C26.2091 10 28 11.7909 28 14V36H18C18 34.4163 17.3739 32.8972 16.2587 31.7735C16.2534 31.7681 16.248 31.7627 16.2426 31.7574C16.2373 31.752 16.2319 31.7466 16.2265 31.7413ZM8.00004 35.9811C8.00512 34.884 8.45185 33.8913 9.17157 33.1716C9.89543 32.4477 10.8954 32 12 32C13.0892 32 14.0768 32.4354 14.7981 33.1416C14.8083 33.1515 14.8184 33.1615 14.8284 33.1716C14.8327 33.1759 14.837 33.1802 14.8413 33.1845C15.5576 33.9073 16 34.902 16 36C16 38.2091 14.2091 40 12 40C9.79086 40 8 38.2091 8 36C8 35.9937 8.00001 35.9874 8.00004 35.9811Z" fill="white"/>
<path d="M16 36C16 38.2091 14.2091 40 12 40C9.79086 40 8 38.2091 8 36C8 33.7909 9.79086 32 12 32C14.2091 32 16 33.7909 16 36Z" fill="#1A1A1A"/>
<path fill-rule="evenodd" clip-rule="evenodd" d="M6 10C3.79086 10 2 11.7909 2 14V32C2 34.2091 3.79086 36 6 36C6 34.4087 6.63214 32.8826 7.75736 31.7574C8.88258 30.6321 10.4087 30 12 30C13.5913 30 15.1174 30.6321 16.2426 31.7574C17.3679 32.8826 18 34.4087 18 36H28V14C28 11.7909 26.2091 10 24 10H6Z" fill="#EE2A74"/>
<path d="M42 36C42 38.2091 40.2091 40 38 40C35.7909 40 34 38.2091 34 36C34 33.7909 35.7909 32 38 32C40.2091 32 42 33.7909 42 36Z" fill="#1A1A1A"/>
<path fill-rule="evenodd" clip-rule="evenodd" d="M37.0437 16H30V36H32C32 34.4087 32.6321 32.8826 33.7574 31.7574C34.8826 30.6321 36.4087 30 38 30C39.5913 30 41.1174 30.6321 42.2426 31.7574C43.2441 32.7589 43.855 34.078 43.9773 35.4779C45.1854 34.7896 46 33.4899 46 32V26.3724C46 25.4829 45.7035 24.6188 45.1574 23.9167L40.2011 17.5442C39.4432 16.5699 38.278 16 37.0437 16Z" fill="#F16F9B"/>
<path d="M34 20C34 18.8954 34.8954 18 36 18H39.5L46 26H36C34.8954 26 34 25.1046 34 24V20Z" fill="white"/>
<path d="M22 21C22 24.866 18.866 28 15 28C11.134 28 8 24.866 8 21C8 17.134 11.134 14 15 14C18.866 14 22 17.134 22 21Z" fill="white"/>
<path d="M14 18C14 17.4477 14.4477 17 15 17C15.5523 17 16 17.4477 16 18V22H14V18Z" fill="#1A1A1A"/>
<path d="M18 20C18.5523 20 19 20.4477 19 21C19 21.5523 18.5523 22 18 22L14 22L14 20L18 20Z" fill="#1A1A1A"/>
<path fill-rule="evenodd" clip-rule="evenodd" d="M37.0437 18H32V30.7085C32.1102 30.5835 32.2246 30.4617 32.3431 30.3431C33.8434 28.8429 35.8783 28 38 28C40.1217 28 42.1566 28.8429 43.6569 30.3431C43.7754 30.4617 43.8898 30.5835 44 30.7085V26.3724C44 25.9277 43.8518 25.4956 43.5787 25.1446L38.6224 18.7721C38.2435 18.2849 37.6608 18 37.0437 18ZM45.6462 33.6472C45.8735 33.1448 46 32.5872 46 32V26.3724C46 25.4829 45.7035 24.6188 45.1574 23.9167L40.2011 17.5442C39.4432 16.5699 38.278 16 37.0437 16H30V36H32C32 34.4087 32.6321 32.8826 33.7574 31.7574C34.8826 30.6321 36.4087 30 38 30C39.5913 30 41.1174 30.6321 42.2426 31.7574C42.7291 32.2438 43.1234 32.8053 43.4143 33.4145C43.7223 34.0594 43.9144 34.758 43.9773 35.4779C44.7093 35.0609 45.2968 34.4194 45.6462 33.6472Z" fill="#F16F9B"/>
</svg>
