<svg width="48" height="49" viewBox="0 0 48 49" fill="none" xmlns="http://www.w3.org/2000/svg">
<path d="M20.0091 29.7091C19.8819 29.1717 20.2071 28.6061 20.7357 28.4459L31.0541 25.3177C31.5827 25.1574 32.1143 25.4632 32.2416 26.0006L35.9235 41.5476C36.1128 42.3471 35.3257 43.077 34.5814 42.7921L29.8446 40.9791C29.4455 40.8263 28.9824 40.9667 28.7043 41.3248L25.4033 45.5746C24.8846 46.2423 23.8804 46.0555 23.691 45.256L20.0091 29.7091Z" fill="#F16F9B"/>
<path fill-rule="evenodd" clip-rule="evenodd" d="M20.2748 26.4997L30.5932 23.3715C32.1788 22.8908 33.7737 23.8081 34.1555 25.4204L37.8374 40.9673C38.4055 43.3659 36.0442 45.5555 33.8113 44.7008L29.7464 43.145L26.9137 46.7919C25.3576 48.7953 22.3451 48.2348 21.777 45.8363L18.0952 30.2893C17.7133 28.6771 18.6892 26.9804 20.2748 26.4997ZM20.7357 28.4459C20.2071 28.6061 19.8819 29.1717 20.0091 29.7091L23.691 45.256C23.8804 46.0555 24.8846 46.2424 25.4033 45.5746L28.7043 41.3248C28.9824 40.9667 29.4455 40.8263 29.8446 40.9791L34.5814 42.7921C35.3257 43.077 36.1128 42.3471 35.9235 41.5476L32.2416 26.0006C32.1143 25.4632 31.5827 25.1575 31.0541 25.3177L20.7357 28.4459Z" fill="white"/>
<path d="M15.4753 24.9454C15.6026 24.408 16.1342 24.1022 16.6628 24.2625L26.9812 27.3907C27.5097 27.5509 27.835 28.1165 27.7078 28.6539L24.0259 44.2008C23.8365 45.0003 22.8323 45.1871 22.3136 44.5194L19.0126 40.2696C18.7345 39.9115 18.2714 39.7711 17.8723 39.9239L13.1355 41.7369C12.3912 42.0218 11.6041 41.2919 11.7934 40.4924L15.4753 24.9454Z" fill="#F16F9B"/>
<path fill-rule="evenodd" clip-rule="evenodd" d="M17.1237 22.3163L27.4421 25.4445C29.0277 25.9252 30.0036 27.6219 29.6217 29.2341L25.9399 44.781C25.3718 47.1796 22.3593 47.7401 20.8032 45.7367L17.9705 42.0898L13.9057 43.6456C11.6727 44.5003 9.31145 42.3106 9.87948 39.9121L13.5614 24.3652C13.9432 22.7529 15.5381 21.8356 17.1237 22.3163ZM16.6628 24.2625C16.1343 24.1022 15.6026 24.408 15.4753 24.9454L11.7935 40.4924C11.6041 41.2919 12.3912 42.0217 13.1355 41.7369L17.8723 39.9239C18.2714 39.7711 18.7345 39.9115 19.0126 40.2696L22.3136 44.5194C22.8323 45.1871 23.8365 45.0003 24.0259 44.2008L27.7078 28.6539C27.835 28.1164 27.5098 27.5509 26.9812 27.3907L16.6628 24.2625Z" fill="white"/>
<path d="M22.6561 3.02971C23.4185 2.338 24.5815 2.338 25.3439 3.02971L28.0151 5.45325C28.4029 5.80507 28.9131 5.99079 29.4363 5.97054L33.0404 5.83103C34.0691 5.79121 34.96 6.53873 35.0994 7.55868L35.5878 11.1322C35.6587 11.651 35.9302 12.1213 36.344 12.4421L39.1946 14.6519C40.0082 15.2826 40.2102 16.4278 39.6613 17.2988L37.7385 20.3503C37.4593 20.7932 37.365 21.328 37.4758 21.8397L38.2391 25.3649C38.4569 26.371 37.8754 27.3781 36.8952 27.6925L33.4607 28.7941C32.9622 28.954 32.5462 29.303 32.3021 29.7663L30.6209 32.9573C30.1411 33.868 29.0483 34.2658 28.0953 33.8765L24.7562 32.5128C24.2715 32.3148 23.7285 32.3148 23.2438 32.5128L19.9048 33.8765C18.9517 34.2658 17.8589 33.868 17.3791 32.9573L15.6979 29.7663C15.4538 29.303 15.0378 28.954 14.5393 28.7941L11.1048 27.6925C10.1246 27.3781 9.54309 26.371 9.76093 25.3649L10.5242 21.8397C10.635 21.328 10.5407 20.7932 10.2615 20.3503L8.33866 17.2988C7.78985 16.4278 7.99179 15.2826 8.80539 14.6519L11.656 12.4421C12.0698 12.1213 12.3413 11.651 12.4122 11.1322L12.9006 7.55868C13.0401 6.53873 13.9309 5.79121 14.9596 5.83103L18.5637 5.97054C19.0869 5.99079 19.5971 5.80507 19.9849 5.45325L22.6561 3.02971Z" fill="#EE2A74"/>
<path fill-rule="evenodd" clip-rule="evenodd" d="M26.6878 1.54849L29.359 3.97203L32.9631 3.83252C35.0204 3.75289 36.8021 5.24794 37.081 7.28783L37.5694 10.8614L40.42 13.0712C42.0472 14.3326 42.4511 16.6232 41.3534 18.365L39.4306 21.4165L40.1938 24.9416C40.6295 26.9539 39.4665 28.9681 37.506 29.5969L34.0716 30.6985L32.3904 33.8895C31.4307 35.711 29.2451 36.5065 27.339 35.728L24 34.3643L20.661 35.728C18.755 36.5065 16.5694 35.711 15.6097 33.8895L13.9284 30.6985L10.494 29.5969C8.5335 28.9681 7.37055 26.9539 7.80623 24.9416L8.56947 21.4165L6.6466 18.365C5.54897 16.6232 5.95286 14.3326 7.58004 13.0712L10.4306 10.8614L10.9191 7.28783C11.1979 5.24794 12.9796 3.75289 15.0369 3.83252L18.641 3.97203L21.3123 1.54849C22.8371 0.165069 25.163 0.165069 26.6878 1.54849ZM25.3439 3.02971C24.5815 2.338 23.4185 2.338 22.6561 3.02971L19.9849 5.45325C19.5971 5.80507 19.0869 5.99079 18.5637 5.97054L14.9596 5.83103C13.9309 5.79121 13.0401 6.53873 12.9006 7.55868L12.4122 11.1322C12.3413 11.651 12.0698 12.1213 11.656 12.4421L8.8054 14.6519C7.9918 15.2826 7.78986 16.4278 8.33867 17.2988L10.2615 20.3503C10.5407 20.7932 10.635 21.328 10.5242 21.8397L9.76094 25.3649C9.5431 26.371 10.1246 27.3781 11.1048 27.6925L14.5393 28.7941C15.0378 28.954 15.4538 29.303 15.6979 29.7663L17.3791 32.9573C17.8589 33.868 18.9518 34.2658 19.9048 33.8765L23.2438 32.5128C23.7285 32.3148 24.2715 32.3148 24.7562 32.5128L28.0953 33.8765C29.0483 34.2658 30.1411 33.868 30.6209 32.9573L32.3022 29.7663C32.5462 29.303 32.9622 28.954 33.4608 28.7941L36.8952 27.6925C37.8755 27.3781 38.4569 26.371 38.2391 25.3649L37.4758 21.8397C37.3651 21.328 37.4593 20.7932 37.7385 20.3503L39.6614 17.2988C40.2102 16.4278 40.0082 15.2826 39.1946 14.6519L36.3441 12.4421C35.9302 12.1213 35.6587 11.651 35.5878 11.1322L35.0994 7.55868C34.96 6.53873 34.0691 5.79121 33.0404 5.83103L29.4363 5.97054C28.9132 5.99079 28.4029 5.80507 28.0151 5.45325L25.3439 3.02971Z" fill="white"/>
<path d="M31.3873 18.6957C31.3873 22.7756 28.0799 26.083 24 26.083C19.9201 26.083 16.6127 22.7756 16.6127 18.6957C16.6127 14.6158 19.9201 11.3084 24 11.3084C28.0799 11.3084 31.3873 14.6158 31.3873 18.6957Z" fill="white"/>
<path d="M27.0351 16.8788C27.4256 17.2694 27.4256 17.9025 27.0351 18.293L23.5002 21.8287L20.6718 19.0002C20.2813 18.6097 20.2813 17.9765 20.6718 17.586C21.0623 17.1955 21.6955 17.1955 22.086 17.586L23.4998 18.9998L25.6209 16.8788C26.0114 16.4883 26.6446 16.4883 27.0351 16.8788Z" fill="#1A1A1A"/>
</svg>
