<svg width="48" height="48" viewBox="0 0 48 48" fill="none" xmlns="http://www.w3.org/2000/svg">
<path d="M2.03528 15.3237C1.46351 13.1898 2.72984 10.9965 4.8637 10.4247L28.0459 4.21303C30.1798 3.64126 32.3731 4.90759 32.9449 7.04145L36.5684 20.5644C37.1401 22.6983 35.8738 24.8916 33.7399 25.4634L10.5577 31.6751C8.42386 32.2468 6.23051 30.9805 5.65874 28.8466L2.03528 15.3237Z" fill="#EE2A74"/>
<path d="M8 19C8 16.7909 9.79086 15 12 15H38C40.2091 15 42 16.7909 42 19V35C42 37.2091 40.2091 39 38 39H12C9.79086 39 8 37.2091 8 35V19Z" fill="#F16F9B"/>
<path fill-rule="evenodd" clip-rule="evenodd" d="M12 13H38C41.3137 13 44 15.6863 44 19V35C44 38.3137 41.3137 41 38 41H12C8.68629 41 6 38.3137 6 35V19C6 15.6863 8.68629 13 12 13ZM12 15C9.79086 15 8 16.7909 8 19V35C8 37.2091 9.79086 39 12 39H38C40.2091 39 42 37.2091 42 35V19C42 16.7909 40.2091 15 38 15H12Z" fill="white"/>
<path d="M8 21H42V27H8V21Z" fill="#1A1A1A"/>
<path d="M32 33C32 31.8954 32.8954 31 34 31H36C37.1046 31 38 31.8954 38 33C38 34.1046 37.1046 35 36 35H34C32.8954 35 32 34.1046 32 33Z" fill="white"/>
</svg>
