<svg width="14" height="15" viewBox="0 0 14 15" fill="none" xmlns="http://www.w3.org/2000/svg">
<path d="M6.50629 1.11945C6.78632 0.865376 7.21348 0.865376 7.49352 1.11945L8.78772 2.29365C8.93015 2.42287 9.11758 2.49109 9.30975 2.48365L11.0559 2.41606C11.4338 2.40143 11.761 2.67601 11.8122 3.05064L12.0488 4.78203C12.0749 4.97257 12.1746 5.14531 12.3266 5.26314L13.7077 6.33378C14.0066 6.56544 14.0807 6.98611 13.8791 7.30601L12.9475 8.78445C12.845 8.94716 12.8104 9.14358 12.8511 9.33155L13.2208 11.0395C13.3009 11.409 13.0873 11.7789 12.7272 11.8944L11.0632 12.4281C10.8801 12.4869 10.7273 12.6151 10.6377 12.7852L9.82312 14.3313C9.64687 14.6658 9.24547 14.8119 8.89542 14.6689L7.27767 14.0082C7.09963 13.9355 6.90018 13.9355 6.72214 14.0082L5.10438 14.6689C4.75434 14.8119 4.35294 14.6658 4.17669 14.3313L3.36214 12.7852C3.27249 12.6151 3.1197 12.4869 2.93657 12.4281L1.27258 11.8944C0.912531 11.7789 0.698952 11.409 0.778966 11.0395L1.14875 9.33155C1.18945 9.14358 1.15481 8.94716 1.05228 8.78445L0.120659 7.30601C-0.0809252 6.98611 -0.00674967 6.56544 0.29209 6.33378L1.67319 5.26314C1.82518 5.14531 1.92491 4.97257 1.95096 4.78203L2.18761 3.05064C2.23882 2.67601 2.56604 2.40143 2.94388 2.41606L4.69005 2.48365C4.88223 2.49109 5.06965 2.42287 5.21208 2.29365L6.50629 1.11945Z" fill="white"/>
</svg>
