<svg width="15" height="15" viewBox="0 0 15 15" fill="none" xmlns="http://www.w3.org/2000/svg">
<path fill-rule="evenodd" clip-rule="evenodd" d="M1.63456 6.5771C0.593166 7.6185 0.593167 9.30694 1.63456 10.3483L4.65155 13.3653C5.69295 14.4067 7.38139 14.4067 8.42279 13.3653L14.2963 7.49186C14.5589 7.22923 14.7001 6.86895 14.6858 6.49781L14.5042 1.77678C14.4774 1.08064 13.9193 0.52245 13.2231 0.495675L8.50208 0.314097C8.13094 0.299822 7.77066 0.441004 7.50803 0.703636L1.63456 6.5771ZM11.6007 4.44348C12.2634 4.44348 12.8007 3.90622 12.8007 3.24348C12.8007 2.58074 12.2634 2.04348 11.6007 2.04348C10.938 2.04348 10.4007 2.58074 10.4007 3.24348C10.4007 3.90622 10.938 4.44348 11.6007 4.44348Z" fill="#1A1A1A"/>
</svg>
